<svg width="262" height="438" viewBox="0 0 262 438" fill="none" xmlns="http://www.w3.org/2000/svg">
<path d="M187.587 62L97.5874 154L123.088 178.5L212.088 88V150.5C210.088 164.9 201.588 178.5 197.588 183.5L156.088 226L181.588 250L228.588 200.5C240.588 187.7 246.254 166.5 247.588 157.5V33C247.088 25.5 240.089 23 235.588 23H114.588C24.9877 36.6 11.0013 144 54 188L80.0874 161.5C52.0874 119.1 74.5876 70.5 119.087 62H187.587Z" fill="white"/>
<path d="M86.1931 348L176.193 256L150.693 231.5L61.6929 322L61.6929 259.5C63.6929 245.1 72.1929 231.5 76.1929 226.5L117.693 184L92.1929 160L45.1929 209.5C33.1929 222.3 27.5262 243.5 26.1929 252.5L26.1929 377C26.6929 384.5 33.6916 387 38.1929 387H159.193C248.793 373.4 262.499 266 219.5 222L193.693 248.5C221.693 290.9 199.193 339.5 154.693 348H86.1931Z" fill="white"/>
</svg>
